HIERARCHY
ROOT root
{
	OFFSET 0.000000 0.054209 0.736571
	CHANNELS 6 Xposition Yposition Zposition Xrotation Yrotation Zrotation
	JOINT spine04
	{
		OFFSET 0.000000 -0.030951 0.078753
		CHANNELS 6 Xposition Yposition Zposition Xrotation Yrotation Zrotation
		JOINT spine02
		{
			OFFSET 0.000000 -0.000238 0.104623
			CHANNELS 6 Xposition Yposition Zposition Xrotation Yrotation Zrotation
			JOINT spine01
			{
				OFFSET 0.000000 0.017421 0.109292
				CHANNELS 3 Xrotation Yrotation Zrotation
				JOINT neck01
				{
					OFFSET 0.000000 -0.049753 0.167208
					CHANNELS 6 Xposition Yposition Zposition Xrotation Yrotation Zrotation
					JOINT neck02
					{
						OFFSET 0.000000 0.005512 0.021216
						CHANNELS 3 Xrotation Yrotation Zrotation
						JOINT jaw
						{
							OFFSET 0.000000 -0.043573 0.063271
							CHANNELS 6 Xposition Yposition Zposition Xrotation Yrotation Zrotation
							End Site
							{
								OFFSET 0.000000 -0.008974 0.006556
							}
						}
						JOINT eye.L
						{
							OFFSET 0.023674 -0.098122 0.090003
							CHANNELS 3 Xrotation Yrotation Zrotation
							End Site
							{
								OFFSET 0.001819 -0.030370 -0.004421
							}
						}
						JOINT orbicularis03.L
						{
							OFFSET 0.023674 -0.098122 0.090003
							CHANNELS 3 Xrotation Yrotation Zrotation
							End Site
							{
								OFFSET 0.001761 -0.029014 0.005250
							}
						}
						JOINT eye.R
						{
							OFFSET -0.023674 -0.098122 0.090003
							CHANNELS 3 Xrotation Yrotation Zrotation
							End Site
							{
								OFFSET -0.001819 -0.030370 -0.004421
							}
						}
						JOINT orbicularis03.R
						{
							OFFSET -0.023674 -0.098122 0.090003
							CHANNELS 3 Xrotation Yrotation Zrotation
							End Site
							{
								OFFSET -0.001761 -0.029014 0.005250
							}
						}
						End Site
						{
							OFFSET 0.000000 0.005512 0.021217
						}
					}
				}
				JOINT clavicle.R
				{
					OFFSET -0.018367 -0.058464 0.107155
					CHANNELS 6 Xposition Yposition Zposition Xrotation Yrotation Zrotation
					JOINT upperarm01.R
					{
						OFFSET -0.132020 0.003642 -0.024313
						CHANNELS 6 Xposition Yposition Zposition Xrotation Yrotation Zrotation
						JOINT lowerarm01.R
						{
							OFFSET -0.133638 0.001770 -0.153088
							CHANNELS 6 Xposition Yposition Zposition Xrotation Yrotation Zrotation
							JOINT wrist.R
							{
								OFFSET -0.108574 -0.154814 -0.103768
								CHANNELS 6 Xposition Yposition Zposition Xrotation Yrotation Zrotation
								JOINT finger2-1.R
								{
									OFFSET -0.024321 -0.084906 -0.032804
									CHANNELS 3 Xrotation Yrotation Zrotation
									JOINT finger2-2.R
									{
										OFFSET -0.002927 -0.018838 -0.012653
										CHANNELS 3 Xrotation Yrotation Zrotation
										JOINT finger2-3.R
										{
											OFFSET 0.000460 -0.015088 -0.013862
											CHANNELS 3 Xrotation Yrotation Zrotation
											End Site
											{
												OFFSET 0.003042 -0.016083 -0.016987
											}
										}
									}
								}
								JOINT finger3-1.R
								{
									OFFSET -0.038828 -0.069770 -0.043126
									CHANNELS 3 Xrotation Yrotation Zrotation
									JOINT finger3-2.R
									{
										OFFSET -0.006387 -0.018854 -0.022184
										CHANNELS 3 Xrotation Yrotation Zrotation
										JOINT finger3-3.R
										{
											OFFSET -0.002379 -0.015757 -0.018305
											CHANNELS 3 Xrotation Yrotation Zrotation
											End Site
											{
												OFFSET 0.000156 -0.013802 -0.019326
											}
										}
									}
								}
								JOINT finger4-1.R
								{
									OFFSET -0.045586 -0.054771 -0.050312
									CHANNELS 3 Xrotation Yrotation Zrotation
									JOINT finger4-2.R
									{
										OFFSET -0.008217 -0.013209 -0.021152
										CHANNELS 3 Xrotation Yrotation Zrotation
										JOINT finger4-3.R
										{
											OFFSET -0.003838 -0.011894 -0.018031
											CHANNELS 3 Xrotation Yrotation Zrotation
											End Site
											{
												OFFSET -0.002024 -0.010563 -0.020894
											}
										}
									}
								}
								JOINT finger5-1.R
								{
									OFFSET -0.046820 -0.037780 -0.058682
									CHANNELS 3 Xrotation Yrotation Zrotation
									JOINT finger5-2.R
									{
										OFFSET -0.005234 -0.007322 -0.016539
										CHANNELS 3 Xrotation Yrotation Zrotation
										JOINT finger5-3.R
										{
											OFFSET -0.001524 -0.005483 -0.012548
											CHANNELS 3 Xrotation Yrotation Zrotation
											End Site
											{
												OFFSET -0.002248 -0.006725 -0.016024
											}
										}
									}
								}
								JOINT finger1-1.R
								{
									OFFSET -0.000927 -0.039280 -0.005363
									CHANNELS 3 Xrotation Yrotation Zrotation
									JOINT finger1-2.R
									{
										OFFSET 0.018386 -0.018805 -0.006895
										CHANNELS 3 Xrotation Yrotation Zrotation
										JOINT finger1-3.R
										{
											OFFSET 0.010991 -0.028095 -0.011249
											CHANNELS 3 Xrotation Yrotation Zrotation
											End Site
											{
												OFFSET 0.004840 -0.019091 -0.014527
											}
										}
									}
								}
							}
						}
					}
				}
				JOINT clavicle.L
				{
					OFFSET 0.018367 -0.058464 0.107155
					CHANNELS 6 Xposition Yposition Zposition Xrotation Yrotation Zrotation
					JOINT upperarm01.L
					{
						OFFSET 0.132020 0.003642 -0.024313
						CHANNELS 6 Xposition Yposition Zposition Xrotation Yrotation Zrotation
						JOINT lowerarm01.L
						{
							OFFSET 0.133637 0.001770 -0.153088
							CHANNELS 6 Xposition Yposition Zposition Xrotation Yrotation Zrotation
							JOINT wrist.L
							{
								OFFSET 0.108575 -0.154815 -0.103768
								CHANNELS 6 Xposition Yposition Zposition Xrotation Yrotation Zrotation
								JOINT finger2-1.L
								{
									OFFSET 0.024321 -0.084906 -0.032804
									CHANNELS 3 Xrotation Yrotation Zrotation
									JOINT finger2-2.L
									{
										OFFSET 0.002927 -0.018838 -0.012653
										CHANNELS 3 Xrotation Yrotation Zrotation
										JOINT finger2-3.L
										{
											OFFSET -0.000460 -0.015088 -0.013862
											CHANNELS 3 Xrotation Yrotation Zrotation
											End Site
											{
												OFFSET -0.003042 -0.016083 -0.016987
											}
										}
									}
								}
								JOINT finger3-1.L
								{
									OFFSET 0.038828 -0.069770 -0.043126
									CHANNELS 3 Xrotation Yrotation Zrotation
									JOINT finger3-2.L
									{
										OFFSET 0.006387 -0.018854 -0.022184
										CHANNELS 3 Xrotation Yrotation Zrotation
										JOINT finger3-3.L
										{
											OFFSET 0.002379 -0.015757 -0.018305
											CHANNELS 3 Xrotation Yrotation Zrotation
											End Site
											{
												OFFSET -0.000156 -0.013802 -0.019326
											}
										}
									}
								}
								JOINT finger4-1.L
								{
									OFFSET 0.045586 -0.054771 -0.050312
									CHANNELS 3 Xrotation Yrotation Zrotation
									JOINT finger4-2.L
									{
										OFFSET 0.008217 -0.013209 -0.021152
										CHANNELS 3 Xrotation Yrotation Zrotation
										JOINT finger4-3.L
										{
											OFFSET 0.003838 -0.011894 -0.018031
											CHANNELS 3 Xrotation Yrotation Zrotation
											End Site
											{
												OFFSET 0.002024 -0.010563 -0.020894
											}
										}
									}
								}
								JOINT finger5-1.L
								{
									OFFSET 0.046820 -0.037780 -0.058682
									CHANNELS 3 Xrotation Yrotation Zrotation
									JOINT finger5-2.L
									{
										OFFSET 0.005233 -0.007322 -0.016539
										CHANNELS 3 Xrotation Yrotation Zrotation
										JOINT finger5-3.L
										{
											OFFSET 0.001524 -0.005484 -0.012548
											CHANNELS 3 Xrotation Yrotation Zrotation
											End Site
											{
												OFFSET 0.002248 -0.006725 -0.016023
											}
										}
									}
								}
								JOINT finger1-1.L
								{
									OFFSET 0.000927 -0.039280 -0.005363
									CHANNELS 3 Xrotation Yrotation Zrotation
									JOINT finger1-2.L
									{
										OFFSET -0.018386 -0.018805 -0.006895
										CHANNELS 3 Xrotation Yrotation Zrotation
										JOINT finger1-3.L
										{
											OFFSET -0.010991 -0.028095 -0.011249
											CHANNELS 3 Xrotation Yrotation Zrotation
											End Site
											{
												OFFSET -0.004840 -0.019091 -0.014527
											}
										}
									}
								}
							}
						}
					}
				}
			}
		}
	}
	JOINT upperleg01.R
	{
		OFFSET -0.087495 -0.048056 0.004242
		CHANNELS 6 Xposition Yposition Zposition Xrotation Yrotation Zrotation
		JOINT lowerleg01.R
		{
			OFFSET -0.034522 -0.027831 -0.333803
			CHANNELS 6 Xposition Yposition Zposition Xrotation Yrotation Zrotation
			JOINT foot.R
			{
				OFFSET -0.037458 0.009413 -0.349633
				CHANNELS 3 Xrotation Yrotation Zrotation
				JOINT toe1-1.R
				{
					OFFSET -0.003290 -0.101211 -0.050981
					CHANNELS 6 Xposition Yposition Zposition Xrotation Yrotation Zrotation
					End Site
					{
						OFFSET 0.000524 -0.066142 0.003009
					}
				}
			}
		}
	}
	JOINT upperleg01.L
	{
		OFFSET 0.087495 -0.048056 0.004242
		CHANNELS 6 Xposition Yposition Zposition Xrotation Yrotation Zrotation
		JOINT lowerleg01.L
		{
			OFFSET 0.034522 -0.027831 -0.333803
			CHANNELS 6 Xposition Yposition Zposition Xrotation Yrotation Zrotation
			JOINT foot.L
			{
				OFFSET 0.037458 0.009413 -0.349633
				CHANNELS 3 Xrotation Yrotation Zrotation
				JOINT toe1-1.L
				{
					OFFSET 0.003290 -0.101211 -0.050981
					CHANNELS 6 Xposition Yposition Zposition Xrotation Yrotation Zrotation
					End Site
					{
						OFFSET -0.000524 -0.066142 0.003009
					}
				}
			}
		}
	}
}
MOTION
Frames: 4
Frame Time:	0.016667
0.4686 0.138 0.4372 0.1022 16.8986 -77.2292 0.0002 -0.0361 0.0711 -3.0953 0.7342 -0.5097 0 -0.0045 0.1064 25.3539 -1.7768 -0.0166 0 0 0 0 -0.0434 0.1618 7.6085 -0.4234 -3.7737 -26.8347 0.7047 -4.7414 0 -0.0436 0.0633 0 -0.0001 0 5.0332 0.1238 2.8154 0 -0.0001 0 4.9792 0.1496 3.4407 0 0 0.0001 -0.0184 -0.0585 0.1072 0.2888 -4.6059 -2.3665 -0.1356 -0.0037 -0.0169 22.7872 -16.2468 4.1917 -0.1336 0.0017 -0.153 -28.1713 -2.0893 52.9675 -0.1085 -0.1548 -0.1037 -47.3861 67.129 52.5255 41.6292 -24.2374 31.2801 44.6094 -17.8899 38.0242 50.9161 -17.1638 42.7581 4.4561 -9.3646 6.0118 22.0108 -24.0033 18.0211 12.9873 -18.0294 9.5622 31.5729 -38.2417 38.9072 54.2152 -43.2841 49.1498 52.1051 -44.1706 50.0659 11.5345 -36.1333 21.5651 31.1346 -42.247 22.7997 34.7723 -44.5524 27.5122 -4.5011 -32.1307 -36.3581 16.0457 15.5159 -40.5482 10.5582 22.6994 -51.961 0.0184 -0.0585 0.1072 -0.7169 3.3275 -3.2758 0.1356 -0.0037 -0.0169 16.3461 11.2935 -18.6394 0.1336 0.0018 -0.1531 -15.469 5.6941 -48.3721 0.1086 -0.1547 -0.1037 -31.8814 -72.1748 -40.9961 44.1908 23.9497 -33.4839 48.0885 17.1935 -41.677 53.0476 16.4675 -45.2726 8.7436 13.9081 -11.1192 26.2668 26.2607 -22.8038 21.5529 24.3036 -19.0689 31.6255 38.0758 -39.0856 54.2307 43.07 -49.3138 52.1174 43.9679 -50.241 29.3782 46.5071 -38.5161 49.2722 49.8134 -41.0313 57.5511 51.3707 -50.3749 -9.0294 33.6512 21.3063 20.0309 -14.3956 39.8642 14.0503 -20.2544 51.6688 -0.0875 -0.0481 0.0042 -63.605 -1.1045 1.2692 -0.0345 -0.0278 -0.3338 79.7899 0.1588 -10.1348 21.4589 -18.3142 4.9541 -0.0033 -0.1012 -0.051 -11.1235 0 0 0.0875 -0.0481 0.0042 -66.0503 5.5979 -2.6671 0.0345 -0.0278 -0.3338 81.8426 4.5457 6.6868 10.5492 2.4988 4.9468 0.0033 -0.1012 -0.051 -5.1212 0 0 
0.469 0.1386 0.4365 0.1682 16.7251 -77.2555 0.0002 -0.0361 0.0711 -3.0967 0.7472 -0.5001 0 -0.0045 0.1063 25.0131 -1.7679 -0.0311 0 0 0 0 -0.0434 0.1618 7.7367 -0.4246 -3.7536 -26.5517 0.6149 -4.7263 0 -0.0436 0.0633 0 -0.0001 0 4.9717 0.1219 2.8084 0 -0.0001 0 4.9185 0.1474 3.4333 0 0 0.0001 -0.0184 -0.0585 0.1072 0.2887 -4.6059 -2.3661 -0.1356 -0.0037 -0.0169 22.8804 -16.2657 4.1948 -0.1336 0.0017 -0.153 -28.2191 -2.1302 53.0757 -0.1085 -0.1548 -0.1037 -47.3148 67.1411 52.5266 41.7017 -24.243 31.3647 44.6727 -17.8875 38.0836 50.9849 -17.1555 42.8225 4.4359 -9.3405 5.9887 21.9869 -23.9881 17.9952 12.961 -18.0056 9.5333 31.5728 -38.2417 38.9071 54.2152 -43.2841 49.1498 52.1051 -44.1706 50.0659 11.915 -36.465 21.9266 31.5377 -42.5008 23.2031 35.2857 -44.814 28.0253 -4.5011 -32.1307 -36.3584 16.046 15.516 -40.5489 10.5587 22.6996 -51.9619 0.0184 -0.0585 0.1072 -0.7098 3.327 -3.2439 0.1356 -0.0037 -0.0169 16.533 11.1179 -18.6119 0.1336 0.0018 -0.1531 -15.4893 5.6918 -48.5652 0.1086 -0.1547 -0.1037 -32.7015 -72.3509 -41.8735 44.2058 23.951 -33.5033 48.1026 17.1922 -41.6902 53.0616 16.4653 -45.2857 8.8351 14.0255 -11.2482 26.3873 26.3234 -22.9333 21.6862 24.3857 -19.2121 31.6258 38.0759 -39.086 54.231 43.0701 -49.3142 52.1177 43.9679 -50.2413 29.3802 46.5079 -38.5181 49.2742 49.8139 -41.0333 57.5534 51.371 -50.3771 -9.0294 33.6512 21.3063 20.0309 -14.3956 39.8643 14.0502 -20.2544 51.6687 -0.0875 -0.0481 0.0042 -63.9523 -1.1707 1.2862 -0.0345 -0.0278 -0.3338 79.8913 0.1095 -10.1142 21.5403 -18.2978 4.8963 -0.0033 -0.1012 -0.051 -11.1487 0 0 0.0875 -0.0481 0.0042 -66.4168 5.545 -2.7365 0.0345 -0.0278 -0.3338 81.9577 4.5616 6.6868 10.7065 2.5751 4.8567 0.0033 -0.1012 -0.051 -5.1532 0 0 
0.4691 0.1386 0.4363 0.1544 16.757 -77.2721 0.0002 -0.0361 0.0711 -3.1052 0.7503 -0.4974 0 -0.0045 0.1062 24.99 -1.7528 -0.0368 0 0 0 0 -0.0434 0.1618 7.7472 -0.4249 -3.7286 -26.3011 0.5923 -4.7023 0 -0.0436 0.0633 0 -0.0001 0 4.9283 0.1206 2.8009 0 0 0 4.8757 0.1458 3.4256 -0.0001 0 0.0001 -0.0184 -0.0585 0.1072 0.2885 -4.6058 -2.3653 -0.1356 -0.0037 -0.0169 22.8707 -16.2422 4.2205 -0.1336 0.0017 -0.153 -28.1864 -2.1169 53.0648 -0.1085 -0.1548 -0.1037 -47.455 67.1238 52.6876 41.7224 -24.2449 31.3898 44.6913 -17.8867 38.1011 51.0049 -17.153 42.8413 4.4302 -9.3328 5.9815 21.9798 -23.9836 17.9875 12.9523 -17.9976 9.5237 31.5729 -38.2417 38.9071 54.2152 -43.2841 49.1498 52.1051 -44.1706 50.0659 12.0247 -36.5642 22.0342 31.6572 -42.5752 23.3227 35.4377 -44.8902 28.1773 -4.5011 -32.1307 -36.3584 16.0461 15.5161 -40.5491 10.5588 22.6997 -51.9622 0.0184 -0.0585 0.1072 -0.7082 3.3268 -3.2365 0.1356 -0.0037 -0.0169 16.5591 11.0837 -18.6827 0.1336 0.0018 -0.1531 -15.381 5.6299 -48.5814 0.1086 -0.1547 -0.1037 -33.5087 -72.5051 -42.7183 44.2082 23.9512 -33.5065 48.1049 17.192 -41.6924 53.064 16.4649 -45.288 8.8597 14.0607 -11.2866 26.4224 26.3416 -22.971 21.7253 24.4097 -19.2541 31.6258 38.0759 -39.086 54.2312 43.0701 -49.3143 52.1178 43.9679 -50.2414 29.3807 46.5081 -38.5186 49.2748 49.8141 -41.0339 57.554 51.3711 -50.3777 -9.0295 33.6512 21.3063 20.0309 -14.3956 39.8643 14.0503 -20.2544 51.6687 -0.0875 -0.0481 0.0042 -63.9676 -1.1959 1.2952 -0.0345 -0.0278 -0.3338 79.8987 0.1183 -10.1223 21.6241 -18.2879 4.9141 -0.0033 -0.1012 -0.051 -11.1606 0 0 0.0875 -0.0481 0.0042 -66.4259 5.5233 -2.7573 0.0345 -0.0278 -0.3338 81.9824 4.5886 6.6675 10.8129 2.6103 4.8155 0.0033 -0.1012 -0.051 -5.2014 0 0 
0.4687 0.1386 0.4367 0.0781 17.0151 -77.251 0.0002 -0.0361 0.0711 -3.1311 0.7567 -0.4943 0 -0.0045 0.1063 25.2403 -1.7508 -0.0236 0 0 0 0 -0.0434 0.1618 7.6581 -0.4173 -3.6957 -25.9495 0.5788 -4.6903 0 -0.0436 0.0633 0 0 0 4.8878 0.1191 2.7891 0 0 0 4.8358 0.1442 3.4134 0 0 0.0001 -0.0184 -0.0585 0.1072 0.2871 -4.6058 -2.3594 -0.1356 -0.0037 -0.0169 22.7847 -16.2643 4.2973 -0.1336 0.0017 -0.153 -27.9978 -2.0098 52.9333 -0.1085 -0.1548 -0.1037 -47.9553 67.1273 53.1774 41.7566 -24.2475 31.4299 44.7212 -17.8855 38.1291 51.0371 -17.1491 42.8715 4.4208 -9.3199 5.9692 21.9683 -23.9762 17.975 12.9364 -17.9833 9.5063 31.5729 -38.2417 38.9072 54.2152 -43.2841 49.1498 52.1051 -44.1706 50.0659 12.2067 -36.72 22.2072 31.8498 -42.6941 23.5154 35.6825 -45.0119 28.4219 -4.5011 -32.1306 -36.3585 16.0463 15.5162 -40.5494 10.5591 22.6998 -51.9627 0.0184 -0.0585 0.1072 -0.7099 3.327 -3.244 0.1356 -0.0037 -0.0169 16.4408 11.1022 -18.871 0.1336 0.0018 -0.1531 -15.0943 5.499 -48.3855 0.1086 -0.1547 -0.1037 -34.7005 -72.6151 -43.9424 44.2776 23.9527 -33.5835 48.1645 17.1863 -41.7482 53.1225 16.4555 -45.3427 8.9028 14.1153 -11.3469 26.4788 26.3708 -23.0316 21.7888 24.4487 -19.3222 31.626 38.076 -39.0862 54.2312 43.0701 -49.3144 52.118 43.968 -50.2416 29.3817 46.5085 -38.5195 49.2757 49.8143 -41.0349 57.555 51.3712 -50.3788 -9.0295 33.6512 21.3063 20.0309 -14.3956 39.8643 14.0503 -20.2544 51.6688 -0.0875 -0.0481 0.0042 -63.5956 -1.1874 1.268 -0.0345 -0.0278 -0.3338 79.8204 0.1427 -10.1276 21.6646 -18.2723 4.9484 -0.0033 -0.1012 -0.051 -11.2104 0 0 0.0875 -0.0481 0.0042 -66.0757 5.5025 -2.7588 0.0345 -0.0278 -0.3338 81.9009 4.5711 6.6727 10.9598 2.6601 4.6917 0.0033 -0.1012 -0.051 -5.2793 0.0001 0 
